<svg xmlns="http://www.w3.org/2000/svg" width="1200" height="630" viewBox="0 0 1200 630" role="img" aria-labelledby="title desc">
  <title id="title">ether.fi Cash vale a pena para viajar?</title>
  <desc id="desc">Guia da DLT Academy sobre custo líquido, cashback, câmbio, Wise e Revolut.</desc>
  <rect width="1200" height="630" fill="#06090f"/>
  <rect x="760" width="440" height="630" fill="#08261f"/>
  <text x="72" y="82" fill="#f4f8fc" font-family="Arial, Helvetica, sans-serif" font-size="28" font-weight="700">DLT ACADEMY</text>
  <rect x="72" y="104" width="198" height="40" rx="20" fill="none" stroke="#30e89a" stroke-width="2"/>
  <text x="94" y="131" fill="#60f0b1" font-family="Arial, Helvetica, sans-serif" font-size="20" font-weight="700">GUIA DE VIAGEM</text>
  <g fill="#f4f8fc" font-family="Arial, Helvetica, sans-serif" font-size="58" font-weight="700">
    <text x="72" y="240">ether.fi Cash</text>
    <text x="72" y="308">vale a pena</text>
    <text x="72" y="376">para viajar?</text>
  </g>
  <g fill="#b2becd" font-family="Arial, Helvetica, sans-serif" font-size="29">
    <text x="76" y="432">Cashback, câmbio, Direct Pay e</text>
    <text x="76" y="474">comparação honesta com Wise e Revolut.</text>
  </g>
  <rect x="72" y="530" width="578" height="50" rx="25" fill="none" stroke="#30e89a" stroke-width="2"/>
  <text x="98" y="563" fill="#5aebad" font-family="Arial, Helvetica, sans-serif" font-size="22" font-weight="700">CUSTO LÍQUIDO &gt; CASHBACK NOMINAL</text>
  <rect x="835" y="105" width="245" height="415" rx="30" fill="#0f1621" stroke="#596f83" stroke-width="4"/>
  <rect x="865" y="160" width="75" height="55" rx="8" fill="none" stroke="#596f83" stroke-width="3"/>
  <g fill="none" stroke="#30e89a" stroke-width="4">
    <path d="M998 172c20 12 20 35 0 48"/>
    <path d="M1008 160c31 20 31 53 0 72"/>
    <path d="M1018 149c43 27 43 68 0 94"/>
  </g>
  <line x1="865" y1="300" x2="1045" y2="300" stroke="#30e89a" stroke-width="16" stroke-linecap="round"/>
  <line x1="865" y1="340" x2="1005" y2="340" stroke="#596f83" stroke-width="12" stroke-linecap="round"/>
  <line x1="865" y1="370" x2="1030" y2="370" stroke="#596f83" stroke-width="12" stroke-linecap="round"/>
  <polyline points="870,445 925,415 985,465 1040,425" fill="none" stroke="#30e89a" stroke-width="4"/>
  <g fill="#06090f" stroke="#30e89a" stroke-width="4">
    <circle cx="870" cy="445" r="8"/><circle cx="925" cy="415" r="8"/><circle cx="985" cy="465" r="8"/><circle cx="1040" cy="425" r="8"/>
  </g>
</svg>
